<svg width="24" height="24" viewBox="0 0 24 24" fill="none" xmlns="http://www.w3.org/2000/svg">
	<path d="M2.99597 14.803C3.30797 14.938 3.64997 15.007 3.99997 15C4.38947 15.0082 4.77509 14.9214 5.12355 14.7472C5.472 14.5729 5.7728 14.3165 5.99997 14C6.22714 13.6835 6.52794 13.4271 6.8764 13.2529C7.22485 13.0786 7.61047 12.9918 7.99997 13C8.38947 12.9918 8.77509 13.0786 9.12355 13.2529C9.472 13.4271 9.7728 13.6835 9.99997 14C10.2271 14.3165 10.5279 14.5729 10.8764 14.7472C11.2248 14.9214 11.6105 15.0082 12 15C12.3895 15.0082 12.7751 14.9214 13.1235 14.7472C13.472 14.5729 13.7728 14.3165 14 14C14.2271 13.6835 14.5279 13.4271 14.8764 13.2529C15.2248 13.0786 15.6105 12.9918 16 13C16.3895 12.9918 16.7751 13.0786 17.1235 13.2529C17.472 13.4271 17.7728 13.6835 18 14C18.2271 14.3165 18.5279 14.5729 18.8764 14.7472C19.2248 14.9214 19.6105 15.0082 20 15C20.35 15.007 20.692 14.938 21.004 14.803M3 20H21V12C21 11.2043 20.6839 10.4413 20.1213 9.87868C19.5587 9.31607 18.7956 9 18 9H6C5.20435 9 4.44129 9.31607 3.87868 9.87868C3.31607 10.4413 3 11.2043 3 12V20ZM12 4L13.465 5.638C13.7264 5.91903 13.9015 6.26935 13.9692 6.64715C14.037 7.02495 13.9946 7.41426 13.8471 7.76862C13.6996 8.12298 13.4533 8.42742 13.1375 8.64561C12.8218 8.86379 12.4499 8.98651 12.0662 8.99911C11.6826 9.0117 11.3035 8.91365 10.9741 8.71665C10.6447 8.51964 10.3789 8.23202 10.2085 7.88809C10.0381 7.54417 9.97028 7.15848 10.0131 6.77705C10.0559 6.39563 10.2076 6.03458 10.45 5.737L12 4Z" stroke="#1B85F3" stroke-width="1.2" stroke-linecap="round" stroke-linejoin="round" />
</svg>
