<svg width="20" height="20" viewBox="0 0 20 20" fill="none" xmlns="http://www.w3.org/2000/svg">
	<path d="M11.6666 5.83336H16.6666M14.1666 3.33336V8.33336M4.16659 3.33336H7.49992C7.96016 3.33336 8.33325 3.70645 8.33325 4.16669V7.50003C8.33325 7.96026 7.96016 8.33336 7.49992 8.33336H4.16659C3.70635 8.33336 3.33325 7.96026 3.33325 7.50003V4.16669C3.33325 3.70645 3.70635 3.33336 4.16659 3.33336ZM4.16659 11.6667H7.49992C7.96016 11.6667 8.33325 12.0398 8.33325 12.5V15.8334C8.33325 16.2936 7.96016 16.6667 7.49992 16.6667H4.16659C3.70635 16.6667 3.33325 16.2936 3.33325 15.8334V12.5C3.33325 12.0398 3.70635 11.6667 4.16659 11.6667ZM12.4999 11.6667H15.8333C16.2935 11.6667 16.6666 12.0398 16.6666 12.5V15.8334C16.6666 16.2936 16.2935 16.6667 15.8333 16.6667H12.4999C12.0397 16.6667 11.6666 16.2936 11.6666 15.8334V12.5C11.6666 12.0398 12.0397 11.6667 12.4999 11.6667Z" stroke="#1B85F3" stroke-width="1.5" stroke-linecap="round" stroke-linejoin="round" />
</svg>
