<svg width="420" height="393" viewBox="0 0 420 393" fill="none" xmlns="http://www.w3.org/2000/svg">
<path opacity="0.4" d="M225 380.5C326.62 380.5 409 298.12 409 196.5C409 94.8796 326.62 12.5 225 12.5C123.38 12.5 41 94.8796 41 196.5C41 298.12 123.38 380.5 225 380.5Z" fill="#ECEFF2"/>
<g clip-path="url(#clip0_1278_33293)">
<path d="M262.384 228.313C262.384 250.631 262.72 274.808 259.111 296.919C258.374 301.439 258.102 322.155 251.582 323.434C242.294 325.255 237.882 301.542 236.679 296.247C233.769 283.397 229.538 270.611 226.33 257.915C225.541 254.777 223.187 251.147 223.652 247.699C224.661 240.247 232.772 240.221 237.119 236.037" fill="#C6CED9"/>
<path d="M211.323 234.487C211.323 256.804 211.659 280.981 208.05 303.092C207.312 307.612 207.041 328.328 200.521 329.607C191.232 331.428 186.821 307.716 185.618 302.421C182.707 289.57 178.477 276.784 175.269 264.088C174.479 260.95 172.125 257.321 172.591 253.872C173.6 246.42 181.711 246.394 186.058 242.21" fill="#C6CED9"/>
<path d="M117.507 263.572C110.521 271.928 110.392 283.913 112.733 293.923C114.454 301.31 117.727 306.812 121.258 313.205C122.591 315.62 126.174 319.107 125.773 321.987C125.476 324.054 123.393 324.777 121.362 325.113C118.994 325.5 108.128 321.6 104.324 319.856C101.297 318.461 100.107 317.39 98.4125 314.639C96.2909 311.216 83.7296 286.199 82.203 281.911C81.1423 278.941 81.4398 275.751 81.4398 272.548C81.4398 266.181 81.7244 259.852 81.6856 253.472C84.6739 252.671 88.3996 253.421 91.3362 254.04C97.7915 255.422 104.363 256.107 110.832 257.386" fill="#C6CED9"/>
<path d="M252.461 81.7387C232.487 56.3861 210.508 64.3548 192.086 65.853C176.446 67.1316 166.575 64.0319 158.231 77.7479C150.288 90.8181 141.013 121.337 133.199 133.916C125.605 146.134 119.874 152.695 106.925 159.075C86.0066 169.394 56.8995 153.96 41.4404 172.197C33.0446 182.116 27.0421 196.71 25.2439 210.206C24.3901 216.651 23.4328 225.511 24.7135 232.007C25.7225 237.173 25.5026 243.334 26.4858 247.854C28.7238 258.109 27.7794 265.186 26.5763 273.736C25.2568 283.087 38.1028 300.922 40.7159 310.389C45.9294 329.258 53.8724 330.692 63.6265 328.948C65.9033 328.535 67.5463 326.546 67.4557 324.234C66.8089 307.819 59.9525 280.064 63.9628 266.633C65.0495 263.003 66.8606 257.14 70.7286 255.19C77.1451 251.935 80.7415 258.147 86.9898 261.286C101.686 268.686 119.512 270.352 135.799 270.494C160.754 270.714 185.54 268.893 208.916 262.19C222.241 258.367 240.417 256.404 251.788 248.487C265.126 239.214 268.799 220.732 271.4 205.582C275.216 183.394 273.366 158.842 272.15 136.409C271.206 119.051 263.276 92.497 252.448 81.687L252.461 81.7387Z" fill="#C6CED9"/>
<path d="M46.6012 168.852C42.9401 171.952 37.869 172.804 34.1304 176.007C31.2714 178.448 27.6104 181.483 26.4461 185.19C27.7656 185.06 28.3995 184.014 29.719 184.053C27.7009 186.972 25.5147 189.723 24.1434 193.042C23.0309 195.728 22.9403 198.311 22.1253 200.907C22.798 199.022 23.6647 197.524 25.5276 196.684C25.3724 198.815 24.6867 200.998 24.2728 202.935C24.5315 201.889 25.0878 200.972 25.657 200.055C24.1175 204.756 21.362 208.631 21.0645 213.771C20.7799 218.55 20.5212 223.69 20.8705 228.456C21.375 227.112 22.397 226.04 23.1861 224.865C23.2896 229.437 22.3582 233.893 22.6686 238.568C23.3025 237.444 23.5613 236.127 24.1434 234.952C24.635 242.507 25.2301 249.714 28.3866 256.843C29.0851 249.52 29.2404 242.921 32.6815 236.243C34.0786 233.531 35.3593 230.78 36.7953 228.094C38.2701 225.343 41.336 221.83 41.957 218.795" fill="#C6CED9"/>
<path d="M225.462 86.9565C225.333 86.9953 225.216 87.0469 225.1 87.1115C222.112 88.8551 218.645 91.9805 217.83 95.2481C217.48 96.6558 217.739 99.523 217.028 100.621C214.971 103.811 214.065 99.6909 212.862 97.8311C208.011 90.3403 198.619 87.9381 190.728 90.4178C186.588 91.7222 180.508 93.285 177.959 96.6687C173.638 102.429 169.615 106.342 168.153 113.807C164.751 131.152 164.247 150.861 174.531 165.739C176.86 169.11 180.223 171.086 183.043 173.902C190.301 181.147 189.951 189.774 187.804 193.817C187.157 195.031 185.359 194.734 185.165 193.378C184.829 191.079 184.065 187.656 180.534 183.588C177.649 180.269 172.047 180.54 168.063 178.267C164.635 176.317 160.78 174.147 157.882 171.202C156.86 170.169 155.139 171.241 155.566 172.623C155.696 173.049 155.825 173.45 155.915 173.811C156.549 176.201 157.636 178.474 158.115 180.94C158.723 184.105 159.227 187.54 159.046 190.885C158.981 192.035 157.584 192.59 156.718 191.828C153.703 189.154 149.395 185.344 146.588 188.289C144.286 190.704 144.505 195.922 144.298 198.957C143.729 207.042 143.781 215.049 146.11 222.863C147.494 227.5 148.917 231.775 152.41 235.236C159.02 241.797 168.723 245.594 177.364 248.577C183.845 250.825 192.888 252.452 199.874 251.083C203.328 250.398 206.51 249.791 210.21 250.153C214.013 250.527 217.17 252.93 220.288 255.022C220.831 255.384 221.542 255.319 222.034 254.88C223.987 253.123 225.281 250.902 227.842 249.559C232.422 247.144 237.428 245.529 242.37 244.16C250.171 242.003 260.261 230.07 264.97 214.894C266.872 208.786 268.631 191.363 266.147 192.771C263.547 193.442 262.396 196.18 260.831 197.885C259.705 199.112 257.778 197.588 258.644 196.167C261.374 191.686 262.499 186.236 261.374 181.754C260.727 177.595 255.941 178.667 253.289 179.145C246.717 180.346 246.096 182.464 243.716 184.285C242.034 185.564 240.844 188.173 239.912 190.911C239.421 192.357 237.312 192.099 237.183 190.575C236.872 187.204 236.859 183.795 238.036 180.94C240.158 175.826 248.593 169.485 252.202 165.494C259.589 157.331 263.767 143.628 263.689 133.064C263.625 123.959 261.568 120.846 260.08 111.96C259.188 106.575 253.521 97.2112 249.718 93.1687C243.302 86.3624 236.562 83.7148 225.475 86.9307L225.462 86.9565Z" fill="white"/>
<path d="M55.1143 166.023C45.9811 166.462 37.8311 161.477 34.1313 152.914C27.4043 137.3 36.7186 120.291 52.3976 115.189C61.7507 112.141 70.5087 115.899 75.7609 123.829C80.8321 131.514 77.986 143.473 70.651 148.601C68.5682 150.06 66.6536 150.848 64.2216 151.106C61.7507 151.377 56.2656 152.126 53.8724 150.912C52.2036 150.06 51.3756 147.903 53.7948 147.438C53.7171 145.888 51.505 145.269 50.082 145.527C46.8737 146.095 50.3148 152.85 52.7728 153.728C57.7404 155.497 50.5865 154.154 51.3756 154.593C62.0871 160.625 54.0923 157.951 53.7948 159.604C52.6175 165.997 54.2605 164.176 57.9603 164.241C57.8439 165.197 57.9862 166.217 58.4519 167.056C58.6718 166.682 59.4609 166.23 59.7067 165.765C62.8632 168.787 66.2656 170.169 69.0598 166.062C69.0728 166.927 69.4997 167.573 69.8619 168.361C70.7933 167.818 71.5695 166.708 72.281 165.959C73.5617 167.457 75.541 169.459 76.4983 166.475C79.3185 168.167 84.8941 164.628 86.9381 162.949C90.3533 160.121 95.7608 154.322 94.0273 149.337C99.2536 146.147 105.23 137.313 103.549 130.674C103.057 128.75 101.867 127.42 101.479 125.482C100.793 122.034 101.75 118.405 100.922 114.866C100.12 115.899 99.4218 116.997 98.8267 118.16C97.7659 114.505 97.0932 111.637 94.7 108.602C92.3455 105.619 87.9083 101.693 85.1011 106.368C83.2124 103.604 81.3236 100.117 77.3133 100.672C77.2745 100.905 77.2616 101.137 77.2616 101.37C73.4194 98.3089 69.2927 98.3734 64.9331 97.6114C63.1608 97.3015 54.5451 94.3697 53.0703 95.9454C52.4364 96.617 52.7469 98.1668 52.8245 99.0709C51.3368 96.0874 48.8918 95.7517 46.007 95.7517C41.1299 95.7517 37.042 95.0801 36.0847 100.414C33.4974 100.362 30.8842 100.285 28.2969 100.375C28.1805 102.248 28.3875 103.217 27.5595 104.521C27.0809 105.283 25.9683 105.748 25.4509 106.652C25.1533 107.169 25.7614 108.099 25.5026 108.551C24.2737 110.682 19.3966 110.953 18.7498 113.187C17.8571 116.3 23.8597 118.418 25.839 119.412C20.7808 123.429 13.8986 124.449 10.1599 130.377C8.9827 132.25 9.35786 133.89 8.45231 135.685C6.80937 138.94 8.56874 145.256 12.2945 149.931C11.9581 152.062 8.62048 153.831 9.39667 155.82C10.2246 157.964 6.1108 159.114 7.90898 157.603C7.85723 158.765 8.25826 165.623 10.962 163.828C11.2078 166.01 10.8068 168.193 10.7809 170.376C10.962 169.898 11.3113 169.433 11.4924 169.045C11.57 170.699 11.3113 172.416 12.0228 173.966C13.2259 173.165 14.2608 171.603 15.1275 170.401C15.6838 175.516 19.526 180.889 23.3552 184.117C24.7394 185.28 25.1663 184.97 26.4082 185.538C27.5595 186.068 28.685 186.868 29.914 187.437C33.5362 189.129 38.9566 185.396 42.5012 184.337C45.1014 183.562 48.4132 182.878 50.2372 180.721C52.6434 177.879 51.4791 173.979 52.2682 170.608" fill="#C6CED9"/>
<path d="M97.131 149.853C103.211 149.983 113.043 144.868 114.388 138.398C113.884 138.901 113.198 139.095 112.668 139.495C113.03 138.346 113.91 137.274 113.871 135.957C112.616 135.905 111.258 135.995 110.055 135.853C111.71 130.804 112.034 124.708 111.465 119.438C111.077 115.822 109.511 112.438 108.942 108.912C108.748 109.132 108.386 109.338 108.153 109.584C107.558 107.182 106.316 104.25 105.255 102.106C105.1 102.661 104.582 103.139 104.388 103.643C103.276 102.054 100.184 95.9713 98.3988 96.8107C94.9577 93.6336 92.4998 89.3587 89.3821 85.8845C89.0975 86.7627 88.9552 87.7055 88.8905 88.6354C87.7909 87.6151 86.743 86.4269 85.3459 85.7812C84.8931 86.5044 84.9707 87.6022 84.9319 88.5579C83.3795 87.628 81.659 85.6133 79.6668 85.4841C79.5762 86.3365 79.5503 87.2277 79.6021 88.1059C75.8634 86.2074 72.5646 84.5284 68.3214 84.7609C68.826 85.355 69.1106 85.9491 69.5375 86.569C67.3253 83.3015 59.0977 83.0819 55.8248 82.9269C56.1223 83.6243 56.4069 84.5801 56.5233 85.2387C48.3216 85.7424 37.9983 83.366 31.1419 88.8937C32.3838 89.8495 33.988 90.2757 35.2687 91.1797C33.0565 91.1151 29.7318 90.4823 27.7526 91.7351C27.9466 91.8513 28.2053 92.0709 28.5288 92.2129C27.6232 92.8329 26.2649 92.9362 25.4499 93.2074C26.1743 93.6336 25.8897 93.8144 26.2261 94.189C25.4369 94.1373 24.8418 94.7185 24.1562 94.8218C24.3891 95.2093 24.3761 95.6225 24.7513 96.0358C18.904 98.5543 15.7346 100.35 11.9312 105.58C10.7152 107.259 9.39566 108.848 8.42542 110.63C9.30511 110.746 10.3012 110.682 11.2326 110.746C11.0645 111.779 9.939 112.787 9.49916 113.678C9.16281 114.362 9.29217 115.628 8.47717 116.493C8.95582 116.196 9.42154 115.951 9.87431 115.602C1.87955 121.117 2.33233 130.171 0.430664 138.979C1.59495 138.126 2.91447 136.732 3.85884 135.543C3.49662 137.7 2.20297 139.547 2.04773 141.781C2.31939 141.523 2.72043 141.317 2.99209 141.097C2.75924 144.261 1.33622 147.154 1.42678 150.46C1.75019 149.543 2.02185 148.575 2.62987 148.019C3.06971 150.525 2.82392 153.405 2.70749 155.949C2.91447 155.265 3.30257 154.619 3.53543 153.948C3.38019 159.32 3.28963 165.003 5.049 170.13C5.96749 172.83 7.66217 174.651 8.92995 177.066C8.90408 175.4 8.92995 173.734 8.89114 172.068C9.38273 175.128 10.9351 177.531 11.5043 180.411C11.6207 179.558 11.7242 178.693 11.7889 177.841C12.0994 178.435 12.6169 178.9 12.8626 179.636C13.0955 179.688 12.992 179.442 13.2249 179.507C13.5353 180.217 14.0916 180.682 14.415 181.392C14.428 180.656 14.7384 179.662 14.829 179.003C16.5495 187.579 28.1536 187.76 35.1781 187.902C35.3075 185.68 32.1639 184.272 31.0902 182.542C34.5572 184.479 34.803 185.319 37.3903 183.058C39.4472 181.25 42.2414 179.894 44.0008 177.828C46.1612 175.283 44.7641 175.387 42.5261 174.315C37.5972 171.951 34.0914 169.73 29.5766 166.566C26.1614 164.163 24.6607 160.341 24.0786 156.156C23.5223 152.101 23.4576 147.128 23.9104 142.983C25.4499 128.763 34.8935 116.855 48.1664 111.198C58.2568 106.898 69.4469 107.543 77.5969 114.75C84.3239 120.691 84.5826 133.348 81.646 141.536C79.4986 147.516 71.7237 152.669 65.2684 152.682C58.8131 152.708 53.2892 143.602 61.7238 141.833C62.2413 138.101 56.8597 143.008 56.1223 143.887C55.9541 139.211 56.0835 137.429 51.2064 140.245C51.0771 139.767 50.5855 139.315 50.4691 138.876C49.7188 139.689 49.059 140.697 48.1534 141.084C48.0111 143.732 48.1017 146.405 48.1146 149.053C47.9594 148.058 47.4807 147.826 46.6399 147.27C46.4976 148.433 46.6011 149.634 46.5622 150.822C45.993 150.706 45.1392 151.055 44.5441 150.912C43.8973 153.663 48.0758 153.78 49.4471 155.239C47.9335 155.549 46.9762 156.983 48.2957 158.132C45.5144 159.127 45.4109 160.999 48.3604 161.477C47.7524 164.9 49.6929 165.571 52.4613 164.796C53.4833 166.85 55.5272 168.529 57.5712 166.566C59.9515 169.924 60.5725 168.426 64.1559 167.754C64.4664 168.929 64.5828 170.402 64.9968 171.68C66.976 172.042 70.857 172.959 72.1636 171.047C72.5258 173.114 73.1856 173.475 74.4404 174.87C75.9281 174.147 76.8337 172.584 78.0756 171.512C81.3744 173.243 81.7884 173.282 84.4533 170.427C87.8297 175.154 90.3394 166.411 92.4092 164.525C97.0534 160.315 100.417 156.931 97.0922 149.841L97.131 149.853Z" fill="white"/>
<path d="M251.037 85.213C252.577 69.521 255.63 49.2958 247.208 35.0374C242.305 26.7459 234.504 31.6149 229.808 37.8013C225.682 43.2515 208.812 65.4656 205.281 71.3162C202.706 75.5782 209.964 66.8605 209.783 71.8199C209.369 83.1982 234.517 86.8144 243.301 87.7831" fill="#C6CED9"/>
<path d="M248.812 78.1097C249.55 66.6927 251.037 51.9823 246.962 41.6114C244.595 35.58 240.817 39.1187 238.554 43.6261C236.561 47.5911 230.585 54.5653 228.877 58.8273C227.635 61.927 223.689 64.7683 223.599 68.3717C223.405 76.6503 245.345 81.5839 248.825 78.1097" fill="white"/>
<path d="M161.58 85.213C160.041 69.521 156.988 49.2958 165.41 35.0374C170.313 26.7459 178.113 31.6149 182.809 37.8013C186.936 43.2515 203.805 65.4656 207.337 71.3162C209.911 75.5782 202.654 66.8605 202.835 71.8199C203.249 83.1982 178.1 86.8144 169.317 87.7831" fill="#C6CED9"/>
<path d="M163.806 78.1097C163.069 66.6927 161.581 51.9823 165.656 41.6114C168.023 35.58 171.801 39.1188 174.065 43.6262C176.057 47.5911 182.047 54.5653 183.741 58.8273C184.983 61.927 188.929 64.7683 189.019 68.3717C189.213 76.6503 167.273 81.5839 163.793 78.1097" fill="white"/>
<path d="M234.064 158.636C229.963 164.758 224.413 163.401 217.906 163.699C218.527 168.942 223.637 168.697 228.1 168.283C233.184 167.806 234.336 164.783 234.077 158.636H234.064Z" fill="#A0AEC0"/>
<path d="M196.768 118.418C199.583 118.418 201.865 116.14 201.865 113.329C201.865 110.519 199.583 108.241 196.768 108.241C193.953 108.241 191.671 110.519 191.671 113.329C191.671 116.14 193.953 118.418 196.768 118.418Z" fill="#A0AEC0"/>
<path d="M234.711 111.96C234.711 115.021 237.195 117.514 240.274 117.514C243.353 117.514 245.836 115.034 245.836 111.96C245.836 108.887 243.353 106.407 240.274 106.407C237.195 106.407 234.711 108.887 234.711 111.96Z" fill="#A0AEC0"/>
<path d="M229.42 125.883C226.51 125.728 223.521 125.857 220.649 126.064C219.175 126.18 218.243 126.128 218.502 127.937C219.11 132.302 226.251 137.442 229.019 132.224C229.834 130.687 229.666 128.285 229.433 125.883H229.42Z" fill="#A0AEC0"/>
<path d="M238.296 124.759C238.567 128.479 236.381 134.007 234.221 137.261C233.47 138.385 232.306 139.444 230.857 139.754C229.499 140.038 227.481 139.754 226.472 138.772C225.838 138.152 225.915 137.507 225.463 136.9C224.842 139.599 223.755 140.206 220.624 139.883C218.154 139.625 214.622 138.876 212.707 137.455C209.978 135.414 207.507 132.676 206.782 129.603C206.549 128.595 206.192 127.063 205.709 125.005C205.411 127.446 206.187 130.571 206.963 132.883C207.908 135.711 209.512 137.662 211.879 139.767C214.376 141.975 217.507 144.248 220.961 144.817C224.04 145.32 228.593 145.682 231.116 143.9C234.13 141.756 237.002 138.63 237.739 135.053C238.283 132.418 239.602 127.652 238.283 124.772L238.296 124.759Z" fill="#A0AEC0"/>
<path d="M232.889 139.638C231.194 140.568 230.845 140.619 229.266 140.671C228.633 140.697 225.605 139.496 225.605 139.496C225.605 139.496 223.885 141.149 222.048 141.033C220.677 140.942 219.228 140.271 218.012 140.245C218.594 142.44 218.71 144.662 219.499 146.806C220.12 148.498 220.573 150.228 221.647 151.688C222.345 152.643 224.881 153.044 226.071 153.263C227.52 153.522 230.004 153.328 231.142 152.566C233.548 150.977 233.949 149.285 234.066 147.348C234.144 146.082 232.915 141.149 232.889 139.638Z" fill="#C6CED9"/>
<path d="M370.638 226.545C382.82 235.325 388.986 265.693 368.567 267.774L368.542 267.786C369.231 269.558 369.791 271.519 370.353 273.487C371.654 278.039 372.966 282.631 375.911 285.026C379.421 287.875 383.862 285.422 387.522 282.921C397.099 276.369 404.815 266.189 409.802 255.823C411.449 252.393 412.494 248.957 413.092 245.504L413.226 245.89C416.577 242.929 417.449 240.504 418.038 236.525C418.062 236.593 418.088 236.66 418.114 236.725C418.139 236.496 418.148 236.264 418.157 236.031C418.167 235.799 418.176 235.567 418.201 235.338C418.148 235.749 418.094 236.144 418.038 236.525C417.853 236.019 417.707 235.448 417.561 234.878C417.244 233.642 416.929 232.411 416.228 231.858C415.573 229.641 415.452 227.215 415.331 224.787C415.245 223.079 415.16 221.37 414.889 219.733C414.802 220.102 414.676 220.47 414.549 220.844C414.346 221.436 414.138 222.045 414.07 222.705C413.558 220.587 413.264 218.3 412.967 215.979C412.349 211.161 411.712 206.194 409.058 202.283C409.058 203.831 408.723 205.428 407.954 206.605L407.952 206.588C407.642 203.901 407.203 200.101 404.282 199.261C404.282 199.63 404.171 200.109 404.059 200.592C404.028 200.728 403.996 200.865 403.967 200.999C400.911 196.522 397.116 192.695 392.807 190.566C390.401 189.38 387.834 189.246 385.28 189.112C383.461 189.017 381.649 188.922 379.905 188.449C375.181 187.161 375.478 184.904 375.845 182.106C376.005 180.892 376.178 179.576 375.96 178.194C374.381 178.08 372.781 178.32 371.237 178.552C371.095 178.573 370.953 178.594 370.812 178.615C371.259 175.766 371.705 170.391 370.601 167.914C370.025 168.235 369.365 168.379 368.71 168.522C368.125 168.651 367.544 168.778 367.028 169.029C366.582 167.753 366.359 166.242 366.396 164.818C359.833 164.979 351.795 167.766 348.234 173.686C348.218 173.365 348.06 172.895 347.888 172.384C347.675 171.752 347.442 171.057 347.428 170.503C347.044 170.88 346.417 171.129 345.828 171.363C345.333 171.56 344.865 171.746 344.587 171.989C344.646 171.588 344.598 171.137 344.551 170.688C344.499 170.192 344.446 169.699 344.537 169.277C336.66 178.627 332.12 185.167 332.169 198.79C332.173 199.473 332.169 200.174 332.165 200.888C332.128 207.505 332.085 215.219 337.975 219.411C340.81 221.421 344.17 221.299 347.527 221.178C348.327 221.149 349.128 221.12 349.921 221.12C357.774 221.095 364.175 221.888 370.638 226.545Z" fill="#D9DFE6"/>
<path d="M382.297 268.902C386.019 269.224 391.651 273.138 393.971 275.925C395.335 277.572 396.948 279.541 397.63 281.585C396.811 280.829 395.695 280.074 394.951 279.479C395.608 281.002 397.407 283.492 397.332 284.904C396.811 284.495 396.191 284.21 395.695 283.764C396.005 285.87 397.097 287.765 397.196 289.92C397.196 289.746 397.171 289.585 397.159 289.412C398.66 294.465 400.099 300.323 399.404 305.574C398.734 305.017 398.3 304.137 397.816 303.555C399.057 310.441 400.707 316.782 400.037 323.854C399.987 323.508 399.876 323.074 399.838 322.702C399.503 324.721 399.516 326.752 399.429 328.784C399.305 328.548 398.945 328.177 398.796 327.793C398.461 329.465 398.002 331.124 397.395 332.697C397.221 332.623 397.146 332.474 397.196 332.264C395.707 333.799 395.149 336.239 393.425 337.639C393.04 336.611 392.42 335.608 391.998 334.567C390.832 335.967 390.113 337.936 388.698 339.088C388.537 338.667 388.028 338.295 387.867 337.849C385.808 338.518 383.302 342.729 381.491 344.19C380.523 342.072 380.573 339.137 380.101 336.821C379.159 332.09 378.712 326.282 376.504 321.947" fill="#D9DFE6"/>
<path d="M268.479 331.855C275.934 343.955 278.403 360.687 278.403 374.917C278.403 377.803 278.564 380.751 278.403 383.636C278.304 385.308 276.964 388.405 277.472 389.915C278.639 393.433 283.737 390.795 285.672 389.556C293.054 384.813 295.746 375.289 296.527 367.102C297.321 358.842 304.938 344.797 305.012 336.45C305.025 335.05 299.666 338.469 299.194 337.119C298.053 333.849 292.768 331.818 290.188 329.688" fill="#D9DFE6"/>
<path d="M236.348 296.038C236.758 290.502 239.425 256.926 231.56 318.653C230.964 323.297 231.671 327.991 231.895 332.66C232.242 339.806 231.87 347.15 230.567 354.197C229.302 361.034 227.367 378.682 226.077 379.983C223.62 382.435 224.551 383.946 225.99 384.231C241.682 387.376 244.498 366.434 248.319 361.888C252.686 356.687 265.526 337.453 267.858 330.616C269.297 326.418 259.931 337.899 259.621 333.428C259.286 328.585 252.612 322.541 249.721 319.297" fill="#D9DFE6"/>
<path d="M330.506 344.859C331.114 353.962 333.918 363.35 332.33 372.651C331.585 376.998 329.948 380.366 327.603 383.871C324.614 388.33 326.884 391.228 332.082 388.59C337.019 386.088 342.167 382.831 345.876 378.583C349.648 374.273 351.285 369.084 352.364 363.362C353.419 357.752 353.717 352.414 356.061 346.878C357.029 344.599 359.15 341.701 358.443 339.038C356.992 333.589 346.001 335.595 341.361 335.57" fill="#D9DFE6"/>
<path d="M312.529 254.56C322.105 268.915 337.687 264.456 352.647 262.214C362.807 260.691 373.464 261.942 381.602 268.147C394.069 277.658 396.649 295.319 396.711 310.776C396.736 316.708 397.815 323.47 394.801 328.585C392.543 332.4 388.896 335.843 386.787 339.422C382.805 346.197 389.231 351.448 387.829 358.507C386.291 366.31 382.309 374.892 378.897 381.952C378.389 383.017 376.838 386.633 375.647 387.178C374.518 387.711 371.553 387.153 370.772 385.803C369.469 383.549 372.67 371.189 364.916 355.089C361.492 347.968 359.123 349.417 350.65 340.945C344.038 345.924 338.58 344.178 330.851 347.224C325.108 349.479 294.987 349.825 283.996 345.453C276.813 342.593 269.78 337.676 263.465 333.291C260.19 331.025 254.992 327.087 253.628 323.049C251.209 315.878 252.97 305.091 252.598 297.586C251.966 284.668 259.756 273.373 269.618 265.36C274.643 261.273 278.29 261.707 283.574 259.378" fill="#D9DFE6"/>
<path d="M225.047 255.167C225.084 261.001 220.296 266.363 219.663 272.345C218.931 279.268 221.561 284.928 222.64 291.48C223 289.548 223.868 287.616 224.972 286.154C225.22 290.031 225.469 294.143 225.518 297.97C225.679 297.796 225.779 297.598 225.816 297.363C226.399 299.617 227.168 302.02 227.813 304.15C228.657 303.035 229.029 301.66 228.88 300.248C230.207 303.01 231.857 306.837 232.751 309.376C232.825 308.2 233.334 306.8 233.495 305.735C235.517 312.683 236.807 318.801 240.442 324.956C242.352 328.189 245.119 331.099 247.116 334.22C247.128 333.539 247.438 332.734 247.451 331.991C252.624 334.419 261.742 344.45 267.498 339.88C268.329 341.007 269.384 341.478 270.475 342.11C270.512 341.899 270.525 341.688 270.512 341.478C272.857 342.196 280.313 349.479 282.707 350.011C282.707 350.011 286.59 336.734 287.098 332.462C287.806 326.554 291.006 321.464 292.52 315.606C294.12 318.454 294.418 321.984 295.857 324.944C296.328 322.442 298.077 320.263 299.206 318.046C302.431 311.729 304.081 304.967 305.434 297.97C307.145 289.164 308.312 281.906 308.733 272.965C309.093 273.472 310.222 274.092 310.644 274.674C313.398 265.67 311.376 257.954 308.051 249.619C307.319 247.774 306.364 243.947 304.702 242.758C301.774 240.677 294.765 243.81 291.763 244.467C272.696 248.653 253.666 249.644 234.301 249.805" fill="white"/>
<path d="M240.084 195.125C239.662 193.676 237.652 192.487 236.672 191.422C234.228 188.772 232.43 185.651 229.862 183.05C228.633 181.799 227.467 180.486 226.214 179.26C225.842 178.901 225.296 178.306 224.651 177.65C222.58 175.557 219.019 176.597 218.387 179.471C218.201 180.3 218.039 181.143 217.866 181.948C216.228 189.54 215.93 196.909 215.571 204.624C215.447 207.176 214.876 210.408 215.571 212.898C216.526 216.316 219.813 220.044 222.977 221.542C225.247 222.62 226.239 222.149 228.299 220.787C230.991 218.991 231.412 217.071 232.963 214.384C233.831 212.873 235.357 211.733 236.039 210.148" fill="#D9DFE6"/>
<path d="M231.598 204.909C231.238 201.466 225.035 193.007 223.646 189.961C223.038 188.635 222.666 187.063 221.884 185.775C221.549 185.217 220.693 185.453 220.631 186.097C220.396 188.536 219.689 191.112 219.453 193.503C219.192 196.091 218.944 198.68 218.721 201.268C218.448 204.34 217.803 209.591 219.155 212.303C219.577 213.133 219.85 213.678 220.669 213.467C221.525 213.244 223.41 209.095 223.919 208.129C224.8 206.445 225.767 204.451 226.276 202.63" fill="white"/>
<path d="M279.346 193.329C279.532 191.831 281.331 190.332 282.125 189.131C284.122 186.121 285.4 182.753 287.521 179.78C288.538 178.356 289.481 176.87 290.511 175.47C290.821 175.062 291.267 174.381 291.788 173.637C293.5 171.235 297.185 171.705 298.264 174.442C298.574 175.235 298.872 176.04 299.169 176.808C301.998 184.053 303.449 191.274 305.037 198.841C305.558 201.343 306.638 204.439 306.352 207.015C305.955 210.545 303.3 214.743 300.41 216.725C298.338 218.149 297.284 217.839 295.038 216.811C292.098 215.461 291.379 213.641 289.419 211.226C288.315 209.863 286.64 208.984 285.71 207.535" fill="#D9DFE6"/>
<path d="M289.097 201.256C288.911 197.8 293.861 188.859 294.754 185.626C295.138 184.227 295.262 182.604 295.833 181.217C296.081 180.623 296.95 180.709 297.123 181.328C297.743 183.706 298.848 186.134 299.468 188.462C300.125 190.976 300.795 193.49 301.428 196.017C302.185 199.014 303.648 204.08 302.743 206.978C302.457 207.869 302.284 208.439 301.428 208.365C300.559 208.278 294.568 216.378 293.923 215.499C292.781 213.975 289.903 206.99 289.122 205.281" fill="white"/>
<path d="M225.729 203.386C221.553 208.431 218.021 214.916 215.135 222.843C213.973 224.797 212.855 227.218 211.87 229.953C207.608 233.601 205.249 237.759 203.61 243.228C203.778 242.948 204.032 242.671 204.279 242.401C204.49 242.171 204.696 241.946 204.839 241.73C204.914 243.238 204.688 244.537 204.458 245.867C204.307 246.732 204.155 247.61 204.082 248.566C204.243 248.541 204.404 248.566 204.553 248.628C204.445 249.062 204.328 249.495 204.211 249.928C203.899 251.08 203.587 252.237 203.424 253.433C203.705 253.202 204.065 253.066 204.399 252.94C204.656 252.843 204.897 252.752 205.074 252.628C205.24 255.685 203.937 258.93 202.665 262.099C201.746 264.386 200.844 266.633 200.521 268.741C200.667 268.658 200.813 268.572 200.96 268.486C201.945 267.909 202.971 267.308 204.007 267.082C203.919 267.529 203.956 268.002 203.992 268.468C204.027 268.918 204.062 269.362 203.983 269.769C204.125 269.612 204.314 269.459 204.489 269.316C204.604 269.223 204.713 269.134 204.801 269.051C204.794 269.565 205.022 270.058 205.243 270.534C205.394 270.86 205.542 271.178 205.608 271.491C205.856 271.392 206.169 271.386 206.454 271.38C206.668 271.376 206.866 271.372 207.009 271.33C206.93 271.636 206.996 272.045 207.06 272.435C207.115 272.772 207.167 273.094 207.121 273.324C208.238 273.101 209.329 272.766 210.421 272.432C210.16 273.46 209.751 274.475 209.218 275.417C210.582 275.548 212.037 275.366 213.494 275.184C214.513 275.057 215.534 274.929 216.524 274.909C216.349 275.178 216.198 275.669 216.043 276.177C215.868 276.747 215.687 277.338 215.458 277.658C218.296 277.814 221.319 277.977 224.308 277.903C229.677 279.475 235.734 278.848 241.916 278.034L234.252 279.219C238.445 282.03 244.201 285.127 248.989 286.216C248.95 285.875 248.954 285.563 248.958 285.26C248.966 284.597 248.973 283.981 248.53 283.207C248.801 283.598 249.154 283.912 249.504 284.223C249.763 284.454 250.021 284.683 250.242 284.941C250.242 284.727 250.279 284.462 250.317 284.182C250.366 283.831 250.417 283.457 250.403 283.133C250.609 283.271 250.871 283.36 251.154 283.456C251.603 283.609 252.106 283.78 252.525 284.198C252.525 284.112 252.571 283.926 252.629 283.692C252.747 283.216 252.914 282.54 252.847 282.092C253.776 282.448 254.666 282.908 255.553 283.367C256.797 284.011 258.034 284.65 259.36 284.99C259.334 284.694 259.427 284.268 259.516 283.86C259.594 283.5 259.669 283.154 259.658 282.922C260.701 283.349 261.765 283.681 262.808 284.007C263.762 284.306 264.699 284.598 265.588 284.953C265.699 284.497 265.873 284.046 266.047 283.594C266.335 282.841 266.627 282.084 266.642 281.287C268.539 281.205 269.962 281.528 271.251 281.821C273.276 282.28 274.97 282.664 277.646 281.287C280.667 279.739 283.762 278.099 286.83 276.473C288.254 275.718 289.672 274.966 291.075 274.228C298.006 273.542 305.163 272.341 310.458 269.583C310.656 269.558 310.854 269.533 311.052 269.508L311.313 269.476C312.861 269.281 314.405 269.086 315.941 268.94C315.848 268.609 315.9 268.189 315.95 267.789C315.994 267.441 316.036 267.107 315.978 266.859C316.658 266.832 317.362 266.86 318.073 266.888C319.656 266.95 321.267 267.014 322.689 266.475C322.682 266.174 322.802 265.829 322.91 265.519C322.993 265.281 323.068 265.063 323.074 264.902C324.029 265.323 325.158 265.67 326.076 265.818C326.493 263.771 325.686 261.754 324.92 259.841C324.297 258.283 323.701 256.794 323.818 255.415C324.463 255.724 325.067 256.097 325.673 256.47C326.234 256.815 326.795 257.161 327.391 257.459C327.416 255.378 326.994 253.012 326.448 251.043C326.195 250.124 325.631 249.111 325.056 248.077C324.167 246.479 323.251 244.831 323.409 243.402C323.559 243.436 323.84 243.433 324.134 243.43C324.473 243.427 324.829 243.423 325.021 243.476C324.029 241.284 322.441 239.117 320.667 237.482C320.965 237.583 321.328 237.607 321.693 237.63C322.042 237.653 322.392 237.676 322.689 237.767C321.709 236.999 321.188 235.76 321.424 234.534C319.451 233.481 317.467 231.71 316.152 229.952C316.301 229.941 316.502 229.886 316.724 229.825C317.036 229.739 317.391 229.642 317.702 229.642C316.852 227.418 313.977 225.779 311.463 224.447C310.441 222.529 309.416 220.788 308.448 219.288C307.709 218.146 306.994 217.008 306.284 215.878C302.87 210.444 299.574 205.198 294.306 200.513C285.151 192.363 280.275 191.286 268.031 191.286L267.591 191.286C252.912 191.285 235.727 191.283 225.729 203.386Z" fill="#D9DFE6"/>
<path d="M244.14 232.627C244.339 234.769 242.751 236.677 240.605 236.875C238.459 237.073 236.548 235.488 236.35 233.345C236.151 231.203 237.739 229.295 239.885 229.097C242.031 228.899 243.942 230.484 244.14 232.627Z" fill="#A0AEC0"/>
<path d="M286.133 228.28C286.331 230.422 284.743 232.33 282.597 232.528C280.451 232.726 278.54 231.141 278.342 228.998C278.143 226.855 279.731 224.948 281.877 224.75C284.024 224.552 285.934 226.137 286.133 228.28Z" fill="#A0AEC0"/>
<path d="M257.575 232.54C259.833 231.525 262.81 231.066 265.291 231.364C266.06 231.45 266.718 231.376 267.065 232.132C267.363 232.788 267.115 233.754 266.916 234.361C266.296 236.28 264.907 238.411 262.761 238.522C260.937 238.609 259.027 237.668 257.687 236.491C257.141 236.008 254.759 233.593 257.575 232.528V232.54Z" fill="#A0AEC0"/>
<path d="M257.5 249.099C259.075 248.95 260.229 248.963 261.296 247.935C262.475 246.795 263.293 245.334 263.43 243.86C263.628 241.606 263.132 239.278 262.934 237.036C262.996 239.426 264.348 241.742 265.092 243.959C265.489 245.148 265.774 246.139 266.804 247.055C268.007 248.12 270.55 248.48 271.605 247.253" stroke="#A0AEC0" stroke-width="1.14112" stroke-linecap="round" stroke-linejoin="round"/>
<path d="M272.921 256.926C273.578 262.648 265.279 265.893 260.677 265.583C262.823 266.078 269.125 267.837 271.507 266.438C273.839 265.063 273.169 259.836 272.908 256.926H272.921Z" fill="#A0AEC0"/>
<path d="M258.89 227.239C257.327 225.679 253.754 219.127 253.791 216.811C253.754 216.935 253.791 217.146 253.791 217.27C253.779 217.183 253.791 217.096 253.804 217.009C253.928 217.034 254.014 217.109 254.064 217.232C254.126 216.873 254.101 216.465 254.089 216.068C254.201 216.353 254.461 216.613 254.573 216.774C254.647 215.573 253.94 214.173 253.58 213.022C252.91 210.916 252.365 208.86 252.265 206.643C252.191 204.971 252.315 203.324 252.377 201.689C253.022 202.346 253.084 203.411 253.99 203.894C254.027 202.494 254.039 201.095 254.089 199.695C254.114 198.804 253.766 197.404 254.337 196.649C256.309 197.776 256.855 201.652 257.401 203.646C257.711 204.773 257.91 205.826 258.121 206.928C258.17 206.358 258.567 205.813 258.927 205.43C259.771 207.721 259.324 210.842 259.249 213.232C259.423 212.86 259.646 212.526 259.969 212.291C260.192 213.331 259.833 214.557 260.205 215.523C260.329 215.362 260.589 215.263 260.689 215.127C260.961 218.644 260.031 225.27 258.865 227.239H258.89Z" fill="white"/>
<path d="M231.598 239.253C226.239 234.72 210.534 236.367 203.773 237.123C195.597 238.027 187.298 241.445 179.086 241.321" stroke="white" stroke-width="3.72727" stroke-linecap="round" stroke-linejoin="round"/>
<path d="M219.602 245.866C205.571 245.495 195.2 256.493 182.386 259.49" stroke="white" stroke-width="3.72727" stroke-linecap="round" stroke-linejoin="round"/>
<path d="M227.529 250.696C215.124 257.942 198.587 264.171 189.072 275.058" stroke="white" stroke-width="3.72727" stroke-linecap="round" stroke-linejoin="round"/>
<path d="M226.226 256.926C217.567 263.527 209.169 270.76 201.006 277.98" stroke="white" stroke-width="3.72727" stroke-linecap="round" stroke-linejoin="round"/>
<path d="M296.827 234.708C300.995 229.06 316.663 227.041 323.399 226.212C331.562 225.208 340.432 226.608 348.396 224.602" stroke="white" stroke-width="3.72727" stroke-linecap="round" stroke-linejoin="round"/>
<path d="M310.015 238.361C323.574 234.757 336.215 243.067 349.377 243.018" stroke="white" stroke-width="3.72727" stroke-linecap="round" stroke-linejoin="round"/>
<path d="M303.426 244.888C317.183 249.074 334.712 251.316 346.485 259.713" stroke="white" stroke-width="3.72727" stroke-linecap="round" stroke-linejoin="round"/>
<path d="M306.144 250.647C316.093 255.081 325.943 260.171 335.557 265.311" stroke="white" stroke-width="3.72727" stroke-linecap="round" stroke-linejoin="round"/>
<path d="M375.526 129.262C378.007 134.588 381.741 139.245 384.706 144.298C388.726 151.159 392.05 159.556 397.124 165.674C398.861 167.767 400.933 169.563 403.004 171.21C403.389 168.374 401.714 163.742 400.858 160.968C398.141 152.15 393.179 141.684 387.398 134.538C390.065 141.932 395.896 149.4 399.99 156.113C402.855 160.819 404.22 166.751 408.401 170.578C408.599 161.315 406.254 151.766 400.759 144.05C397.409 139.344 393.675 134.514 390.127 129.82C386.704 125.287 385.872 126.117 379.645 126.117" fill="#D9DFE6"/>
<path d="M371.121 93.9156C375.736 97.2347 376.977 100.381 379.557 105.434C383.353 112.852 387.335 120.234 391.913 127.206C395.411 132.532 398.971 138.278 402.532 143.356C395.808 144.83 392.719 139.294 387.596 135.504C388.998 138.377 393.476 143.022 392.992 146.366C390.536 147.047 387.683 142.477 386.07 141.065C386.268 143.542 387 145.994 386.864 148.496C377.138 150.366 372.139 130.699 368.95 125.002C367.338 122.104 366.122 119.354 365.018 116.208C364.323 114.252 358.939 104.133 359.498 102.548C360.205 100.579 361.234 101.21 363.244 100.034C365.651 98.6218 366.941 95.7981 371.121 93.9156Z" fill="white"/>
<path d="M282.213 122.995C281.37 119.837 283.888 116.84 287.151 117.051C293.775 117.484 301.094 116.605 306.925 116.357C315.559 115.998 324.156 115.862 332.802 115.862C339.948 115.862 347.081 115.862 354.226 115.862C366.073 115.862 377.921 116.209 389.755 116.171C393.551 116.171 397.347 116.171 401.131 116.171C402.471 116.171 405.646 115.626 406.924 116.481C408.748 117.707 408.711 119.788 408.338 122.166C407.743 125.98 406.043 125.534 402.136 125.633C386.914 126.017 371.705 126.55 356.459 125.955C333.212 125.051 309.964 126.922 286.754 126.624C284.645 126.599 282.809 125.163 282.263 123.132C282.25 123.07 282.238 123.02 282.213 122.958V122.995Z" fill="#C6CED9"/>
<path d="M306.714 51.4725C299.767 48.0171 300.052 58.6929 300.462 62.6561C301.442 71.8953 311.205 83.2399 317.767 89.6553C315.993 80.5895 310.125 72.1058 308.389 63.263" fill="#C6CED9"/>
<path d="M328.102 13.1535C296.357 16.9805 296.63 99.5755 339.23 113.645C345.941 115.862 357.54 114.029 364.562 112.666C372.65 111.094 378.48 108.072 381.706 99.2164C385.03 90.0639 381.358 75.3135 379.014 66.2477C376.644 57.0829 366.311 49.5776 360.455 42.0847C352.739 32.2263 345.743 11.0233 328.102 13.1535Z" fill="#D9DFE6"/>
<path d="M337.331 110.041C330.297 106.722 332.269 121.113 334.043 124.729C334.453 125.423 334.49 125.571 335.048 125.026C335.718 123.454 334.279 117.93 336.4 115.527C336.611 118.128 335.979 125.088 337.281 124.804C339.787 123.763 338.447 117.955 339.477 115.465C340.234 120.593 339.365 122.364 340.742 124.444C341.028 124.878 341.66 124.804 341.846 124.321C343.633 119.59 343.199 109.545 337.343 110.041" fill="#A0AEC0"/>
<path d="M352.911 110.635C345.877 107.316 347.849 121.707 349.623 125.324C350.033 126.017 350.07 126.166 350.628 125.621C351.298 124.048 349.859 118.524 351.98 116.122C352.191 118.723 351.559 125.683 352.861 125.398C355.367 124.358 354.027 118.549 355.057 116.06C355.814 121.187 354.945 122.958 356.322 125.026C356.608 125.46 357.24 125.386 357.426 124.903C359.213 120.172 358.779 110.127 352.923 110.623" fill="#A0AEC0"/>
<path d="M309.952 77.5924C310.225 75.7594 309.94 73.8893 310.349 72.0315C311.367 73.7159 312.074 76.0443 313.786 77.1217C313.91 76.8245 314.046 76.5273 314.195 76.23C315.163 76.7873 315.795 77.8401 316.85 78.2488C317.495 76.9731 317.532 75.4622 317.482 74.0255C318.649 75.8585 319.79 77.9144 321.403 79.4129C322.085 78.7937 322.308 77.8772 322.11 76.8864C323.722 78.0506 324.926 80.7381 327.27 80.7505C327.754 79.574 327.58 78.0258 328.077 76.874C329.181 78.6203 331.017 79.574 333.039 79.6235C333.808 78.2364 333.647 76.5149 333.709 75.0039C335.309 76.2796 337.641 77.902 339.812 78.2364C340.308 76.6263 340.556 74.9668 340.494 73.2576C341.76 74.4466 343.633 75.2268 345.407 74.8801C345.407 73.3939 345.283 71.8334 345.494 70.3843C347.367 70.0376 349.352 71.3132 351.411 71.1274C351.523 69.1087 350.568 66.7927 350.977 64.9474C353.768 66.1982 357.093 66.5698 360.144 66.4583C360.231 65.2322 360.12 63.9442 360.281 62.7428C361.236 62.9905 362.551 63.6841 363.705 63.4116C364.151 61.814 364.027 60.1792 364.003 58.5443C365.516 58.9035 369.945 60.9718 371.235 59.8324C372.178 58.9902 371.818 56.8848 371.967 55.8568C372.165 54.5192 372.55 53.3675 372.525 52.067C372.426 47.6952 370.342 46.9768 368.419 43.1623C366.037 38.456 359.723 32.0406 356.2 27.9784C354.823 26.3931 353.495 24.7583 352.118 23.1606C347.541 18.7392 342.244 15.0237 336.19 13.6118C332.183 13.2898 328.027 13.8967 323.958 14.1816C310.573 19.1851 304.221 39.744 305.921 61.0833L305.958 61.0337C305.958 61.108 305.933 61.1823 305.933 61.269C306.268 65.3313 306.901 69.4307 307.819 73.4434C307.831 73.4063 307.856 73.3815 307.868 73.3443C308.253 74.9172 308.786 76.4777 309.965 77.6171L309.952 77.5924Z" fill="white"/>
<path d="M320.734 16.4355C320.436 10.466 328.599 10.2431 332.208 7.30785C334.441 5.48726 337.493 2.98551 339.304 0.818146C339.528 3.96392 338.982 7.07253 336.377 9.10366C338.089 8.76927 339.602 7.65462 341.24 7.41931C341.587 9.07889 340.929 10.627 339.193 10.9119C340.632 11.0357 342.096 10.9119 343.522 11.0481C343.063 13.7728 338.399 16.9433 335.967 17.5378C332.68 18.3304 328.747 17.7731 325.386 17.8103C325.646 18.3676 326.117 18.7267 326.763 18.9001" fill="white"/>
<path d="M346.273 38.1092C346.273 41.6884 343.37 44.5865 339.785 44.5865C336.2 44.5865 333.297 41.6884 333.297 38.1092C333.297 34.5299 336.2 31.6319 339.785 31.6319C343.37 31.6319 346.273 34.5299 346.273 38.1092Z" fill="#D9DFE6"/>
<path d="M335.951 29.8359C336.944 31.5327 336.373 33.7 334.674 34.6908C332.974 35.6816 330.803 35.1119 329.811 33.4152C328.818 31.7184 329.389 29.5511 331.088 28.5603C332.788 27.5695 334.959 28.1392 335.951 29.8359Z" fill="#A0AEC0"/>
<path d="M315 36.1277C316.724 34.8396 320.458 34.369 322.319 35.818C322.108 36.6602 319.267 41.3169 318.312 41.478C317.183 41.6513 314.231 38.0597 313.623 36.9575" fill="#C6CED9"/>
<path d="M346.176 90.3612C349.823 96.405 353.855 102.845 358.37 108.369C360.442 110.895 364.275 115.366 367.439 116.357C367.798 114.698 365.876 111.069 365.255 109.558C369.92 114.66 377.983 124.531 385.836 123.417C385.873 121.695 381.841 117.992 380.166 117.199C383.491 118.066 386.828 121.423 390.227 122.797C392.535 123.726 395.214 123.974 397.608 123.639C398.253 119.49 393.477 116.952 392.051 113.36C394.185 115.28 397.137 117.732 398.204 114.45C400.015 108.852 391.914 103.811 391.89 98.8696C381.618 99.3774 369.659 93.8413 361.484 87.9213" fill="#A0AEC0"/>
<path d="M350.021 42.9393C345.245 45.7011 341.126 49.5652 338.658 55.0146C336.375 60.0552 336.015 65.4675 336.189 70.954C336.388 76.8864 338.745 82.6206 341.226 87.9709C342.59 90.9185 345.468 91.6492 348.024 93.8289C347.999 93.2592 348.073 92.5781 347.974 92.0331C347.9 95.1046 352.254 99.2783 354.512 101.012C354.388 99.5756 353.619 98.1761 353.383 96.6775C355.045 98.8201 357.34 101.792 359.338 103.155C358.978 101.557 358.023 99.9223 357.923 98.3866C361.57 101.916 365.329 105.136 369.138 108.394C369.125 107.068 368.914 105.731 368.666 104.43C372.562 108.802 377.635 111.985 382.771 114.66C382.523 113.608 381.99 112.679 381.469 111.7C382.536 113.868 385.128 116.617 387.411 117.422C387.336 116.729 387.721 116.444 387.783 115.849C388.825 115.763 389.917 115.787 390.959 115.787C391.058 114.413 390.81 113.05 390.376 111.787C391.74 114.363 393.105 115.416 395.909 114.883C396.33 107.242 394.68 97.9284 392.993 90.5717C390.301 78.8556 384.694 67.2014 378.355 57.12C374.534 51.039 362.34 36.9326 350.021 42.9393Z" fill="#C6CED9"/>
</g>
<defs>
<clipPath id="clip0_1278_33293">
<rect width="419.318" height="391.364" fill="white" transform="translate(0.432617 0.818176)"/>
</clipPath>
</defs>
</svg>
